<mxfile host="app.diagrams.net" modified="2023-07-01T02:38:06.053Z" agent="Mozilla/5.0 (iPad; CPU OS 16_3 like Mac OS X) AppleWebKit/605.1.15 (KHTML, like Gecko) EdgiOS/114.0.1823.51 Version/16.0 Mobile/15E148 Safari/604.1" version="21.5.2" etag="WuAfLl63nCx8jIDeXVRD" type="github">
  <diagram name="Page-1" id="bRpqqZiqib7_N51dpVgE">
    <mxGraphModel>
      <root>
        <mxCell id="0" />
        <mxCell id="1" parent="0" />
      </root>
    </mxGraphModel>
  </diagram>
</mxfile>
